<mxfile host="Electron" modified="2024-01-21T07:44:55.648Z" agent="Mozilla/5.0 (Windows NT 10.0; Win64; x64) AppleWebKit/537.36 (KHTML, like Gecko) draw.io/22.1.21 Chrome/120.0.6099.109 Electron/28.1.0 Safari/537.36" etag="_96sHmjzIK7FnH4X5gEc" version="22.1.21" type="device">
  <diagram id="kgpKYQtTHZ0yAKxKKP6v" name="Page-1">
    <mxGraphModel dx="1034" dy="511" grid="1" gridSize="10" guides="1" tooltips="1" connect="1" arrows="1" fold="1" page="1" pageScale="1" pageWidth="850" pageHeight="1100" math="0" shadow="0">
      <root>
        <mxCell id="0" />
        <mxCell id="1" parent="0" />
        <mxCell id="4mg8VnppKZb1lpq3KCTk-5" value="&lt;p style=&quot;line-height: 0%;&quot;&gt;User-Authentication&lt;br&gt;&lt;/p&gt;" style="rounded=1;whiteSpace=wrap;html=1;align=center;verticalAlign=top;spacing=0;horizontal=0;arcSize=5;" parent="1" vertex="1">
          <mxGeometry x="50" y="130" width="270" height="140" as="geometry" />
        </mxCell>
        <mxCell id="4mg8VnppKZb1lpq3KCTk-3" value="&lt;p style=&quot;line-height: 0%;&quot;&gt;&lt;span style=&quot;background-color: initial;&quot;&gt;User.Api&lt;/span&gt;&lt;/p&gt;" style="rounded=1;whiteSpace=wrap;html=1;align=center;verticalAlign=top;spacing=0;horizontal=0;arcSize=5;" parent="1" vertex="1">
          <mxGeometry x="270" y="323" width="430" height="257" as="geometry" />
        </mxCell>
        <mxCell id="a66V34djZB1lMs37rIlq-25" value="&lt;p style=&quot;line-height: 100%;&quot;&gt;&lt;br&gt;&lt;/p&gt;&lt;p style=&quot;line-height: 100%;&quot;&gt;&lt;br&gt;&lt;/p&gt;&lt;p style=&quot;line-height: 100%;&quot;&gt;&lt;br&gt;&lt;/p&gt;&lt;p style=&quot;line-height: 100%;&quot;&gt;&lt;br&gt;&lt;/p&gt;&lt;p style=&quot;line-height: 100%;&quot;&gt;User Authentication &amp;amp; Autorisation&lt;br&gt;&lt;/p&gt;" style="rounded=0;whiteSpace=wrap;html=1;align=right;" parent="1" vertex="1">
          <mxGeometry x="300" y="338" width="300" height="110" as="geometry" />
        </mxCell>
        <mxCell id="3nuBFxr9cyL0pnOWT2aG-1" value="User.App" style="shape=umlLifeline;perimeter=lifelinePerimeter;container=1;collapsible=0;recursiveResize=0;rounded=0;shadow=0;strokeWidth=1;" parent="1" vertex="1">
          <mxGeometry x="148" y="80" width="82" height="560" as="geometry" />
        </mxCell>
        <mxCell id="3nuBFxr9cyL0pnOWT2aG-8" value="Log In" style="verticalAlign=bottom;endArrow=block;shadow=0;strokeWidth=1;exitX=0.499;exitY=0.215;exitDx=0;exitDy=0;exitPerimeter=0;" parent="1" source="a66V34djZB1lMs37rIlq-3" target="3nuBFxr9cyL0pnOWT2aG-5" edge="1">
          <mxGeometry relative="1" as="geometry">
            <mxPoint x="85" y="200.04999999999995" as="sourcePoint" />
            <Array as="points">
              <mxPoint x="198" y="200" />
            </Array>
          </mxGeometry>
        </mxCell>
        <mxCell id="a66V34djZB1lMs37rIlq-3" value="User" style="shape=umlLifeline;perimeter=lifelinePerimeter;container=1;collapsible=0;recursiveResize=0;rounded=0;shadow=0;strokeWidth=1;" parent="1" vertex="1">
          <mxGeometry x="40" y="80" width="80" height="560" as="geometry" />
        </mxCell>
        <mxCell id="a66V34djZB1lMs37rIlq-8" value="Oidc Exchange" style="endArrow=classic;startArrow=classic;html=1;rounded=0;exitX=0.493;exitY=0.17;exitDx=0;exitDy=0;exitPerimeter=0;entryX=0.496;entryY=0.169;entryDx=0;entryDy=0;entryPerimeter=0;" parent="1" source="3nuBFxr9cyL0pnOWT2aG-1" target="3nuBFxr9cyL0pnOWT2aG-5" edge="1">
          <mxGeometry width="50" height="50" relative="1" as="geometry">
            <mxPoint x="194.67000000000007" y="174.32500000000005" as="sourcePoint" />
            <mxPoint x="314.6700000000001" y="175.64" as="targetPoint" />
          </mxGeometry>
        </mxCell>
        <mxCell id="a66V34djZB1lMs37rIlq-12" value="&lt;font style=&quot;font-size: 10px;&quot;&gt;AccessToken&lt;br&gt;&amp;lt;User&amp;gt; Received&lt;/font&gt;" style="shape=callout;whiteSpace=wrap;html=1;perimeter=calloutPerimeter;size=11;position=0;position2=0;base=20;" parent="1" vertex="1">
          <mxGeometry x="90" y="210" width="90" height="50" as="geometry" />
        </mxCell>
        <mxCell id="a66V34djZB1lMs37rIlq-5" value="Log In" style="verticalAlign=bottom;startArrow=oval;endArrow=block;startSize=8;shadow=0;strokeWidth=1;exitX=1.2;exitY=0.06;exitDx=0;exitDy=0;exitPerimeter=0;" parent="1" edge="1">
          <mxGeometry relative="1" as="geometry">
            <mxPoint x="87" y="156.60000000000014" as="sourcePoint" />
            <mxPoint x="190" y="157" as="targetPoint" />
          </mxGeometry>
        </mxCell>
        <mxCell id="a66V34djZB1lMs37rIlq-17" value="Request &lt;User.Api&gt; &#39;secured&#39; endpoint" style="verticalAlign=bottom;endArrow=block;shadow=0;strokeWidth=1;entryX=0.44;entryY=0.386;entryDx=0;entryDy=0;entryPerimeter=0;" parent="1" source="3nuBFxr9cyL0pnOWT2aG-1" edge="1" target="a66V34djZB1lMs37rIlq-1">
          <mxGeometry relative="1" as="geometry">
            <mxPoint x="101.32999999999993" y="211.37" as="sourcePoint" />
            <mxPoint x="432.5" y="295.28" as="targetPoint" />
            <Array as="points" />
          </mxGeometry>
        </mxCell>
        <mxCell id="a66V34djZB1lMs37rIlq-22" value="Check AccessToken&lt;User&gt;" style="verticalAlign=bottom;endArrow=block;shadow=0;strokeWidth=1;exitX=0.511;exitY=0.45;exitDx=0;exitDy=0;exitPerimeter=0;" parent="1" edge="1">
          <mxGeometry relative="1" as="geometry">
            <mxPoint x="471.0999999999999" y="360" as="sourcePoint" />
            <mxPoint x="308.5" y="360.4" as="targetPoint" />
            <Array as="points" />
          </mxGeometry>
        </mxCell>
        <mxCell id="a66V34djZB1lMs37rIlq-11" value="Oidc Exchange" style="endArrow=classic;startArrow=classic;html=1;rounded=0;exitX=0.504;exitY=0.251;exitDx=0;exitDy=0;exitPerimeter=0;" parent="1" source="3nuBFxr9cyL0pnOWT2aG-1" target="3nuBFxr9cyL0pnOWT2aG-5" edge="1">
          <mxGeometry width="50" height="50" relative="1" as="geometry">
            <mxPoint x="194.67000000000007" y="220.32500000000005" as="sourcePoint" />
            <mxPoint x="314.6700000000001" y="221.64" as="targetPoint" />
          </mxGeometry>
        </mxCell>
        <mxCell id="a66V34djZB1lMs37rIlq-29" value="&lt;p style=&quot;line-height: 100%;&quot;&gt;&lt;br&gt;&lt;/p&gt;&lt;p style=&quot;line-height: 100%;&quot;&gt;&lt;br&gt;&lt;/p&gt;&lt;p style=&quot;line-height: 100%;&quot;&gt;&lt;span style=&quot;background-color: initial;&quot;&gt;User.Api | Authentication (HttpClient&amp;lt;Identity.Api&amp;gt;)&lt;/span&gt;&lt;br&gt;&lt;/p&gt;" style="rounded=0;whiteSpace=wrap;html=1;align=right;" parent="1" vertex="1">
          <mxGeometry x="300" y="458" width="390" height="80" as="geometry" />
        </mxCell>
        <mxCell id="a66V34djZB1lMs37rIlq-31" value="GetDiscoveryDoc" style="verticalAlign=bottom;endArrow=block;shadow=0;strokeWidth=1;exitX=0.487;exitY=0.652;exitDx=0;exitDy=0;exitPerimeter=0;entryX=0.515;entryY=0.653;entryDx=0;entryDy=0;entryPerimeter=0;" parent="1" edge="1">
          <mxGeometry relative="1" as="geometry">
            <mxPoint x="468.6999999999998" y="473.1199999999999" as="sourcePoint" />
            <mxPoint x="310.23" y="473.68000000000006" as="targetPoint" />
            <Array as="points" />
          </mxGeometry>
        </mxCell>
        <mxCell id="a66V34djZB1lMs37rIlq-32" value="refreshXsrfToken" style="verticalAlign=bottom;endArrow=block;shadow=0;strokeWidth=1;exitX=0.508;exitY=0.714;exitDx=0;exitDy=0;exitPerimeter=0;entryX=0.515;entryY=0.714;entryDx=0;entryDy=0;entryPerimeter=0;" parent="1" edge="1">
          <mxGeometry relative="1" as="geometry">
            <mxPoint x="470.8000000000002" y="507.8399999999999" as="sourcePoint" />
            <mxPoint x="673.7750000000001" y="507.8399999999999" as="targetPoint" />
            <Array as="points" />
          </mxGeometry>
        </mxCell>
        <mxCell id="3nuBFxr9cyL0pnOWT2aG-5" value="Identity.Auth" style="shape=umlLifeline;perimeter=lifelinePerimeter;container=1;collapsible=0;recursiveResize=0;rounded=0;shadow=0;strokeWidth=1;" parent="1" vertex="1">
          <mxGeometry x="268" y="80" width="82" height="560" as="geometry" />
        </mxCell>
        <mxCell id="a66V34djZB1lMs37rIlq-1" value="User.Api" style="shape=umlLifeline;perimeter=lifelinePerimeter;container=1;collapsible=0;recursiveResize=0;rounded=0;shadow=0;strokeWidth=1;" parent="1" vertex="1">
          <mxGeometry x="420" y="80" width="100" height="560" as="geometry" />
        </mxCell>
        <mxCell id="a66V34djZB1lMs37rIlq-24" value="Check Droit" style="shape=callout;whiteSpace=wrap;html=1;perimeter=calloutPerimeter;size=10;position=0.05;position2=0;base=14;" parent="a66V34djZB1lMs37rIlq-1" vertex="1">
          <mxGeometry x="74" y="318" width="79" height="30" as="geometry" />
        </mxCell>
        <mxCell id="a66V34djZB1lMs37rIlq-20" value="User.Db" style="shape=umlLifeline;perimeter=lifelinePerimeter;container=1;collapsible=0;recursiveResize=0;rounded=0;shadow=0;strokeWidth=1;" parent="1" vertex="1">
          <mxGeometry x="535" y="80" width="85" height="560" as="geometry" />
        </mxCell>
        <mxCell id="a66V34djZB1lMs37rIlq-23" value="getUserWithDroits+Store In HttpCtx" style="verticalAlign=bottom;endArrow=block;shadow=0;strokeWidth=1;exitX=0.503;exitY=0.498;exitDx=0;exitDy=0;exitPerimeter=0;entryX=0.522;entryY=0.498;entryDx=0;entryDy=0;entryPerimeter=0;" parent="1" edge="1">
          <mxGeometry relative="1" as="geometry">
            <mxPoint x="470.3000000000002" y="386.88" as="sourcePoint" />
            <mxPoint x="579.3699999999999" y="386.88" as="targetPoint" />
            <Array as="points" />
          </mxGeometry>
        </mxCell>
        <mxCell id="a66V34djZB1lMs37rIlq-34" value="Ask AccessToken&lt;User.Api&gt;" style="verticalAlign=bottom;endArrow=block;shadow=0;strokeWidth=1;exitX=0.474;exitY=0.688;exitDx=0;exitDy=0;exitPerimeter=0;entryX=0.515;entryY=0.653;entryDx=0;entryDy=0;entryPerimeter=0;" parent="1" edge="1">
          <mxGeometry relative="1" as="geometry">
            <mxPoint x="467.4000000000001" y="493.28" as="sourcePoint" />
            <mxPoint x="310" y="494.56000000000006" as="targetPoint" />
            <Array as="points" />
          </mxGeometry>
        </mxCell>
        <mxCell id="a66V34djZB1lMs37rIlq-35" value="Identity.Api" style="shape=umlLifeline;perimeter=lifelinePerimeter;container=1;collapsible=0;recursiveResize=0;rounded=0;shadow=0;strokeWidth=1;" parent="1" vertex="1">
          <mxGeometry x="630" y="80" width="85" height="560" as="geometry" />
        </mxCell>
        <mxCell id="a66V34djZB1lMs37rIlq-36" value="request &lt;Identity.api&gt; endpoint" style="verticalAlign=bottom;endArrow=block;shadow=0;strokeWidth=1;exitX=0.506;exitY=0.821;exitDx=0;exitDy=0;exitPerimeter=0;entryX=0.515;entryY=0.819;entryDx=0;entryDy=0;entryPerimeter=0;" parent="1" edge="1">
          <mxGeometry relative="1" as="geometry">
            <mxPoint x="470.5999999999999" y="567.76" as="sourcePoint" />
            <mxPoint x="673.7750000000001" y="566.6399999999999" as="targetPoint" />
            <Array as="points" />
          </mxGeometry>
        </mxCell>
      </root>
    </mxGraphModel>
  </diagram>
</mxfile>
